# xmcd CD database file
#
# Track frame offsets:
#	150
#	21580
#	38074
#	49164
#	65064
#	78310
#	95017
#	114745
#	126351
#	145364
#	165063
#	175136
#	187954
#	209397
#	217123
#	230365
#	238669
#	253329
#	267823
#	291865
#	292176
#
# Disc length: 4151 seconds
#
# Revision: 5
# Processed by: cddbd v1.5.2PL0 Copyright (c) Steve Scherf et al.
# Submitted via: CDex 1.70beta2
#
DISCID=48103515
DTITLE=Björk - Quiet Fireworks (rarities 1993-1997)
DYEAR=1997
DGENRE=Jazz
TTITLE0=Sweet, Sweet Intuition
TTITLE1=Karvel
TTITLE2=Scary
TTITLE3=Nature Is Ancient (aka My Snare)
TTITLE4=Sod Off
TTITLE5=So Broken
TTITLE6=I Go Humble
TTITLE7=My Spine
TTITLE8=I Remember You
TTITLE9=Hyperballad (Brodsky Quartet version)
TTITLE10=Venus As A Boy (Harpsichord version)
TTITLE11=Immature (Björk's version)
TTITLE12=Charlene
TTITLE13=Glóra
TTITLE14=Síðasta Ég
TTITLE15=Stígðu Mig
TTITLE16=Human Behaviour (live on Spanish TV, 1993)
TTITLE17=Anchor Song (live on Spanish TV, 1993)
TTITLE18=Come To Me (live on Spanish TV, 1993)
TTITLE19=Blank track
TTITLE20=Vísur Vatnsenda-Rósu
EXTD=YEAR: 1997
EXTT0=
EXTT1=
EXTT2=
EXTT3=
EXTT4=
EXTT5=
EXTT6=
EXTT7=
EXTT8=
EXTT9=
EXTT10=
EXTT11=
EXTT12=
EXTT13=
EXTT14=
EXTT15=
EXTT16=
EXTT17=
EXTT18=
EXTT19=
EXTT20=
PLAYORDER=
